<svg width="16" height="16" viewBox="0 0 16 16" fill="none" xmlns="http://www.w3.org/2000/svg">
<g clip-path="url(#clip0_196_3302)">
<path d="M14.6667 5.02344V11.3334C14.6667 11.8436 14.4718 12.3344 14.1218 12.7056C13.7718 13.0768 13.2933 13.3002 12.784 13.3301L12.6667 13.3334H3.33333C2.82319 13.3335 2.33232 13.1386 1.96116 12.7886C1.58999 12.4386 1.36659 11.96 1.33667 11.4508L1.33333 11.3334V5.02344L7.63 9.22144L7.70733 9.26544C7.79847 9.30997 7.89856 9.33311 8 9.33311C8.10143 9.33311 8.20153 9.30997 8.29267 9.26544L8.37 9.22144L14.6667 5.02344Z" fill="#B3B3B3"/>
<path d="M12.6667 2.66675C13.3867 2.66675 14.018 3.04675 14.37 3.61808L8 7.86475L1.63 3.61808C1.79715 3.34659 2.02681 3.11902 2.29981 2.95434C2.5728 2.78966 2.88122 2.69265 3.19933 2.67141L3.33333 2.66675H12.6667Z" fill="#B3B3B3"/>
</g>
<defs>
<clipPath id="clip0_196_3302">
<rect width="16" height="16" fill="white"/>
</clipPath>
</defs>
</svg>
