<svg width="24" height="24" viewBox="0 0 24 24" fill="none" xmlns="http://www.w3.org/2000/svg">
<path fill-rule="evenodd" clip-rule="evenodd" d="M8.45249 13.7595C9.42417 13.7595 10.2119 12.9718 10.2119 12.0001C10.2119 11.0284 9.42417 10.2407 8.45249 10.2407C7.48081 10.2407 6.69312 11.0284 6.69312 12.0001C6.69312 12.9718 7.48081 13.7595 8.45249 13.7595ZM11.2119 12.0001C11.2119 13.5241 9.97645 14.7595 8.45249 14.7595C6.92853 14.7595 5.69312 13.5241 5.69312 12.0001C5.69312 10.4761 6.92853 9.24072 8.45249 9.24072C9.97645 9.24072 11.2119 10.4761 11.2119 12.0001Z" fill="#1C1817"/>
<path fill-rule="evenodd" clip-rule="evenodd" d="M15.5475 13.7595C16.5191 13.7595 17.3068 12.9718 17.3068 12.0001C17.3068 11.0284 16.5191 10.2407 15.5475 10.2407C14.5758 10.2407 13.7881 11.0284 13.7881 12.0001C13.7881 12.9718 14.5758 13.7595 15.5475 13.7595ZM18.3068 12.0001C18.3068 13.5241 17.0714 14.7595 15.5475 14.7595C14.0235 14.7595 12.7881 13.5241 12.7881 12.0001C12.7881 10.4761 14.0235 9.24072 15.5475 9.24072C17.0714 9.24072 18.3068 10.4761 18.3068 12.0001Z" fill="#1C1817"/>
<path fill-rule="evenodd" clip-rule="evenodd" d="M18 3H6C4.34315 3 3 4.34315 3 6V18C3 19.6569 4.34315 21 6 21H18C19.6569 21 21 19.6569 21 18V6C21 4.34315 19.6569 3 18 3ZM6 2C3.79086 2 2 3.79086 2 6V18C2 20.2091 3.79086 22 6 22H18C20.2091 22 22 20.2091 22 18V6C22 3.79086 20.2091 2 18 2H6Z" fill="#1C1817"/>
</svg>
