<svg width="24" height="24" viewBox="0 0 24 24" fill="none" xmlns="http://www.w3.org/2000/svg">
<path d="M20.9955 20.9993L21 20.9986V14.3972C21 11.1678 20.3047 8.68007 16.5292 8.68007C14.7142 8.68007 13.4962 9.67605 12.999 10.6203H12.9465V8.98156H9.3667V20.9986H13.0942V15.0482C13.0942 13.4815 13.3912 11.9665 15.3315 11.9665C17.2432 11.9665 17.2717 13.7545 17.2717 15.1487V20.9993H20.9955Z" fill="#B3B3B3"/>
<path d="M3.297 8.98301H7.02902V21H3.297V8.98301Z" fill="#B3B3B3"/>
<path d="M5.16151 3C3.96825 3 3 3.96823 3 5.16145C3 6.35468 3.96825 7.34316 5.16151 7.34316C6.35477 7.34316 7.32302 6.35468 7.32302 5.16145C7.32227 3.96823 6.35402 3 5.16151 3Z" fill="#B3B3B3"/>
</svg>
