<svg width="40" height="40" viewBox="0 0 40 40" fill="none" xmlns="http://www.w3.org/2000/svg">
<rect width="40" height="40" rx="20" fill="#DBDBDB"/>
<path fill-rule="evenodd" clip-rule="evenodd" d="M29.6396 27.3274C29.0223 29.2033 26.6037 30.1393 24.8758 29.9833C22.5159 29.77 19.948 28.518 17.9987 27.1394C15.1335 25.1128 12.4496 21.9782 10.8856 18.6517C9.78034 16.3011 9.53235 13.4105 11.1763 11.268C11.7843 10.476 12.4429 10.0533 13.4295 10.004C14.8002 9.93734 14.9922 10.7213 15.4628 11.9426C15.8135 12.8559 16.2814 13.7879 16.5428 14.7345C17.0321 16.5011 15.3215 16.5744 15.1055 18.0184C14.9722 18.929 16.0748 20.1503 16.5734 20.7996C17.5346 22.0642 18.7118 23.1489 20.0506 24.0035C20.8106 24.4822 22.0346 25.3448 22.9039 24.8688C24.2425 24.1355 24.1172 21.8782 25.9878 22.6422C26.9571 23.0369 27.8957 23.6062 28.821 24.1048C30.2516 24.8741 30.1849 25.6714 29.6396 27.3274C30.0476 26.0901 29.2316 28.5647 29.6396 27.3274Z" fill="#060606"/>
</svg>
