<svg width="24" height="24" viewBox="0 0 24 24" fill="none" xmlns="http://www.w3.org/2000/svg">
<path d="M4.26172 9.17845C4.26172 8.33863 4.43768 7.50481 4.7916 6.67899C5.14553 5.85317 5.65142 5.08533 6.31128 4.37949C6.97113 3.67364 7.83695 3.09976 8.91071 2.65986C9.98448 2.21995 11.1742 2 12.4799 2C14.5995 2 16.3391 2.65386 17.6988 3.95958C19.0585 5.26529 19.7384 6.80496 19.7384 8.57858C19.7384 10.8581 19.1625 12.7417 18.0087 14.2274C16.855 15.713 15.3653 16.4569 13.5397 16.4569C12.9398 16.4569 12.376 16.3169 11.8501 16.037C11.3242 15.757 10.9543 15.4171 10.7403 15.0172L9.94049 18.1765C9.87451 18.4304 9.78652 18.6864 9.68055 18.9463C9.57457 19.2063 9.4566 19.4562 9.33062 19.6962C9.20465 19.9361 9.07668 20.1621 8.95071 20.376C8.82473 20.59 8.69676 20.7899 8.57079 20.9759C8.44481 21.1619 8.33484 21.3198 8.24086 21.4458C8.14688 21.5718 8.0609 21.6817 7.98091 21.7757L7.86094 21.9357C7.82095 21.9897 7.76696 22.0097 7.70098 21.9957C7.63499 21.9817 7.595 21.9417 7.581 21.8757C7.581 21.8617 7.571 21.7697 7.55101 21.5958C7.53101 21.4218 7.51102 21.2398 7.49102 21.0459C7.47102 20.8519 7.45103 20.602 7.43103 20.296C7.41104 19.9901 7.40504 19.6922 7.41104 19.4062C7.41704 19.1203 7.43703 18.8024 7.47102 18.4564C7.50502 18.1105 7.55501 17.7906 7.62099 17.4966C7.76696 16.8708 8.26085 14.7832 9.10067 11.238C8.9947 11.024 8.90671 10.7681 8.84073 10.4682C8.77474 10.1682 8.74075 9.92429 8.74075 9.73833L8.72075 9.43839C8.72075 8.58458 8.93671 7.87473 9.37061 7.30885C9.80452 6.74297 10.3264 6.45904 10.9403 6.45904C11.4342 6.45904 11.8161 6.623 12.09 6.94893C12.364 7.27486 12.4999 7.68477 12.4999 8.17866C12.4999 8.4846 12.4439 8.86252 12.33 9.30842C12.216 9.75432 12.066 10.2682 11.8801 10.8481C11.6941 11.428 11.5601 11.8979 11.4802 12.2578C11.3462 12.8577 11.4642 13.3775 11.8301 13.8174C12.196 14.2573 12.6859 14.4773 13.2998 14.4773C14.3535 14.4773 15.2233 13.8814 15.9092 12.6877C16.5951 11.4939 16.939 10.0523 16.939 8.35862C16.939 7.0649 16.5191 6.00913 15.6792 5.18931C14.8394 4.36949 13.6657 3.95958 12.16 3.95958C10.4804 3.95958 9.11667 4.49946 8.0709 5.57923C7.02512 6.65899 6.50123 7.95271 6.50123 9.45839C6.50123 10.3522 6.75518 11.104 7.26107 11.7179C7.43503 11.9179 7.48702 12.1318 7.42104 12.3578C7.39504 12.4237 7.35505 12.5777 7.30106 12.8177C7.24707 13.0576 7.20708 13.2116 7.18109 13.2776C7.15509 13.4235 7.08711 13.5215 6.98113 13.5675C6.87515 13.6135 6.75518 13.6115 6.62121 13.5575C5.83538 13.2376 5.24551 12.6877 4.85159 11.9079C4.45768 11.128 4.26172 10.2182 4.26172 9.17845Z" fill="#B3B3B3"/>
</svg>
