<svg width="24" height="24" viewBox="0 0 24 24" fill="none" xmlns="http://www.w3.org/2000/svg">
<path d="M22 11.3779C22 10.0051 20.8836 8.88877 19.5109 8.88877C18.962 8.88877 18.4406 9.06798 18.0149 9.39281C16.626 8.42828 14.8065 7.8533 12.8712 7.70769L13.9154 5.2584L16.9533 5.9678C17.0504 6.90744 17.837 7.64421 18.8015 7.64421C19.8307 7.64421 20.6683 6.80663 20.6683 5.77738C20.6683 4.74814 19.8307 3.91055 18.8015 3.91055C18.1493 3.91055 17.5756 4.24782 17.2421 4.75685L13.6913 3.92673C13.5485 3.89302 13.3984 3.91087 13.2674 3.97714C13.1365 4.04341 13.0332 4.15383 12.9757 4.2889L11.532 7.67408C9.44244 7.74627 7.45115 8.33494 5.94773 9.36045C5.57588 9.09264 5.13737 8.93257 4.68044 8.89784C4.2235 8.86311 3.76584 8.95506 3.35778 9.16359C2.94972 9.37213 2.60708 9.68915 2.36753 10.0798C2.12798 10.4705 2.00081 10.9196 2.00001 11.3779C1.99905 11.8164 2.11516 12.2473 2.33635 12.626C2.55754 13.0047 2.87579 13.3176 3.25825 13.5322C3.24864 13.6435 3.24407 13.7552 3.24456 13.867C3.24456 17.2982 7.15246 20.0898 11.9564 20.0898C16.7592 20.0898 20.6683 17.2982 20.6683 13.867C20.6683 13.7699 20.6646 13.6741 20.6584 13.5782C21.0633 13.371 21.403 13.0558 21.6397 12.6674C21.8765 12.2791 22.0012 11.8327 22 11.3779ZM18.8015 5.1551C18.9669 5.15543 19.1253 5.22144 19.242 5.33861C19.3587 5.45578 19.4241 5.6145 19.4238 5.77987C19.4234 5.94524 19.3574 6.1037 19.2403 6.2204C19.1231 6.3371 18.9644 6.40248 18.799 6.40215C18.7171 6.40198 18.6361 6.38569 18.5605 6.35421C18.4849 6.32272 18.4163 6.27666 18.3585 6.21864C18.3007 6.16063 18.2549 6.0918 18.2237 6.01609C18.1925 5.94038 18.1766 5.85926 18.1767 5.77738C18.1769 5.6955 18.1932 5.61445 18.2247 5.53887C18.2561 5.46328 18.3022 5.39463 18.3602 5.33685C18.4182 5.27907 18.4871 5.23328 18.5628 5.20209C18.6385 5.17091 18.7196 5.15494 18.8015 5.1551ZM7.6005 13.2447C7.6005 12.559 8.1593 12.0002 8.84505 12.0002C9.5308 12.0002 10.0896 12.559 10.0896 13.2447C10.0753 13.5652 9.93789 13.8677 9.70606 14.0894C9.47423 14.3111 9.16582 14.4348 8.84505 14.4348C8.52429 14.4348 8.21588 14.3111 7.98405 14.0894C7.75222 13.8677 7.61483 13.5652 7.6005 13.2447ZM14.8301 17.3729C13.9943 17.9784 12.9885 18.3044 11.9564 18.3044C10.9243 18.3044 9.91861 17.9784 9.08276 17.3729C9.01453 17.3258 8.95639 17.2656 8.91175 17.1957C8.86711 17.1259 8.83688 17.0478 8.82283 16.9661C8.80878 16.8844 8.81119 16.8008 8.82992 16.72C8.84866 16.6393 8.88334 16.5631 8.93193 16.4959C8.98052 16.4288 9.04203 16.372 9.11287 16.3289C9.1837 16.2859 9.26242 16.2574 9.34441 16.2452C9.4264 16.233 9.51001 16.2373 9.59032 16.2578C9.67062 16.2783 9.74602 16.3147 9.81207 16.3648C10.4355 16.8173 11.1861 17.0611 11.9564 17.0611C12.7268 17.0611 13.4774 16.8173 14.1008 16.3648C14.1669 16.3147 14.2423 16.2783 14.3226 16.2578C14.4029 16.2373 14.4865 16.233 14.5685 16.2452C14.6505 16.2574 14.7292 16.2859 14.8 16.3289C14.8708 16.372 14.9324 16.4288 14.981 16.4959C15.0295 16.5631 15.0642 16.6393 15.083 16.72C15.1017 16.8008 15.1041 16.8844 15.0901 16.9661C15.076 17.0478 15.0458 17.1259 15.0011 17.1957C14.9565 17.2656 14.8983 17.3258 14.8301 17.3729ZM15.0678 14.4893C14.7377 14.4893 14.4212 14.3581 14.1878 14.1247C13.9544 13.8913 13.8233 13.5748 13.8233 13.2447C13.8233 12.9146 13.9544 12.5981 14.1878 12.3647C14.4212 12.1313 14.7377 12.0002 15.0678 12.0002C15.3979 12.0002 15.7145 12.1313 15.9479 12.3647C16.1813 12.5981 16.3124 12.9146 16.3124 13.2447C16.3124 13.5748 16.1813 13.8913 15.9479 14.1247C15.7145 14.3581 15.3979 14.4893 15.0678 14.4893Z" fill="#B3B3B3"/>
</svg>
