<svg width="16" height="16" viewBox="0 0 16 16" fill="none" xmlns="http://www.w3.org/2000/svg">
<path d="M7.99846 1.33325C4.31731 1.33325 1.33326 4.31773 1.33326 7.99888C1.33326 9.20913 1.66332 10.3967 2.28693 11.4339L1.92998 13.8524C1.8376 14.4445 2.31212 14.7355 2.75432 14.6528L5.45702 14.1602C6.26304 14.4928 7.12651 14.664 7.99846 14.6641C11.6796 14.6641 14.6641 11.68 14.6641 7.99888C14.6641 4.31773 11.6792 1.33325 7.99846 1.33325ZM5.78541 4.41557C5.90425 4.42103 6.02057 4.46555 6.12639 4.56801C6.15453 4.59531 6.18183 4.6268 6.20828 4.66292L6.83398 6.10203C6.9608 6.34056 6.84448 6.56732 6.70968 6.74957L6.11002 7.55837C6.36534 7.95395 6.7605 8.42175 7.33497 8.94079C7.91028 9.45983 8.41588 9.80502 8.83539 10.0188L9.57868 9.34015C9.74623 9.1873 9.9604 9.04872 10.2103 9.15076L11.7057 9.62655C11.7439 9.64922 11.7783 9.67316 11.8081 9.69836C12.2591 10.0771 11.8069 10.7201 11.5578 10.996C11.0203 11.5906 10.1523 11.8862 9.25659 11.7119C8.36045 11.5373 7.42063 10.9863 6.3561 10.0251C5.29156 9.06384 4.6478 8.18491 4.38282 7.31145C4.11826 6.43798 4.32403 5.54352 4.86113 4.94931C5.048 4.74228 5.42804 4.40088 5.78499 4.41599L5.78541 4.41557Z" fill="#B3B3B3"/>
</svg>
