<svg width="40" height="40" viewBox="0 0 40 40" fill="none" xmlns="http://www.w3.org/2000/svg">
<rect width="40" height="40" rx="20" fill="#DBDBDB"/>
<path d="M19.9977 10C14.476 10 9.99988 14.4767 9.99988 19.9984C9.99988 21.8138 10.495 23.5952 11.4304 25.151L10.895 28.7787C10.7564 29.6668 11.4682 30.1033 12.1315 29.9792L16.1855 29.2404C17.3946 29.7393 18.6898 29.9961 19.9977 29.9963C25.5194 29.9963 29.9961 25.5202 29.9961 19.9984C29.9961 14.4767 25.5188 10 19.9977 10ZM16.6781 14.6235C16.8564 14.6317 17.0308 14.6984 17.1896 14.8521C17.2318 14.8931 17.2727 14.9403 17.3124 14.9945L18.251 17.1532C18.4412 17.511 18.2667 17.8511 18.0645 18.1245L17.165 19.3377C17.548 19.931 18.1407 20.6328 19.0024 21.4113C19.8654 22.1899 20.6238 22.7077 21.2531 23.0283L22.368 22.0104C22.6193 21.7811 22.9406 21.5732 23.3154 21.7263L25.5585 22.4399C25.6158 22.474 25.6674 22.5099 25.7122 22.5477C26.3887 23.1158 25.7103 24.0802 25.3367 24.4941C24.5305 25.386 23.2285 25.8295 21.8849 25.568C20.5407 25.306 19.1309 24.4796 17.5341 23.0377C15.9373 21.5959 14.9717 20.2775 14.5742 18.9673C14.1774 17.6571 14.486 16.3154 15.2917 15.4241C15.572 15.1135 16.1421 14.6014 16.6775 14.6241L16.6781 14.6235Z" fill="#060606"/>
</svg>
