<svg width="24" height="24" viewBox="0 0 24 24" fill="none" xmlns="http://www.w3.org/2000/svg">
<path d="M21.9954 9.93404C22.0403 8.6386 21.7559 7.35286 21.1686 6.19619C20.7702 5.72158 20.2172 5.40129 19.606 5.29114C17.0781 5.06264 14.5397 4.96898 12.0017 5.01057C9.47298 4.96709 6.94372 5.05773 4.42467 5.28209C3.92663 5.37234 3.46574 5.60505 3.09823 5.95182C2.28056 6.70302 2.18971 7.98819 2.09886 9.07424C1.96705 11.0269 1.96705 12.9863 2.09886 14.939C2.12514 15.5502 2.21651 16.157 2.37142 16.7491C2.48096 17.2062 2.70259 17.6291 3.01646 17.9799C3.38647 18.3451 3.8581 18.591 4.37015 18.6859C6.32884 18.9267 8.30242 19.0265 10.2755 18.9845C13.4553 19.0298 16.2445 18.9845 19.5424 18.7311C20.067 18.6421 20.5519 18.3958 20.9324 18.0252C21.1868 17.7717 21.3768 17.4614 21.4866 17.1201C21.8115 16.1269 21.9711 15.0875 21.9591 14.043C21.9954 13.5361 21.9954 10.4771 21.9954 9.93404ZM9.94845 14.586V8.98374L15.3269 11.7984C13.8187 12.6311 11.8291 13.5723 9.94845 14.586Z" fill="#B3B3B3"/>
</svg>
